<?xml version="1.0" encoding="UTF-8"?>
<svg version="1.1" xmlns="http://www.w3.org/2000/svg" width="60" height="109">
<path d="M0 0 C1.16781006 0.00523682 2.33562012 0.01047363 3.53881836 0.01586914 C4.79887695 0.0190918 6.05893555 0.02231445 7.35717773 0.02563477 C8.6976732 0.03399136 10.03816799 0.04245632 11.37866211 0.05102539 C12.72306153 0.05603879 14.06746271 0.06060197 15.41186523 0.06469727 C18.71334151 0.07653051 22.01473014 0.09301568 25.31616211 0.11352539 C26.21366033 3.18178919 26.43327979 5.90622515 26.41381836 9.09790039 C26.4105957 10.0324707 26.40737305 10.96704102 26.40405273 11.92993164 C26.39148437 13.38206055 26.39148437 13.38206055 26.37866211 14.86352539 C26.37415039 15.84708008 26.36963867 16.83063477 26.36499023 17.84399414 C26.35322694 20.2672333 26.33678895 22.69034812 26.31616211 25.11352539 C27.36416992 25.0787207 27.36416992 25.0787207 28.43334961 25.04321289 C29.7984668 25.01614258 29.7984668 25.01614258 31.19116211 24.98852539 C32.54854492 24.9537207 32.54854492 24.9537207 33.93334961 24.91821289 C36.31616211 25.11352539 36.31616211 25.11352539 38.31616211 27.11352539 C38.7109375 29.84399414 38.7109375 29.84399414 38.91381836 33.30102539 C38.9930957 34.55786133 39.07237305 35.81469727 39.15405273 37.10961914 C39.22932268 38.44423205 39.30418996 39.77886773 39.37866211 41.11352539 C39.53480282 43.69694441 39.6923292 46.2802801 39.85131836 48.86352539 C39.9637085 50.71397461 39.9637085 50.71397461 40.07836914 52.60180664 C40.38419688 57.1182606 40.81274303 61.61516834 41.31616211 66.11352539 C38.48346545 67.52987372 35.84149773 67.45982589 32.69116211 67.67602539 C31.50264648 67.75981445 30.31413086 67.84360352 29.08959961 67.92993164 C28.17436523 67.99051758 27.25913086 68.05110352 26.31616211 68.11352539 C26.32139893 69.28971436 26.32663574 70.46590332 26.33203125 71.67773438 C26.35007874 76.0255457 26.36159319 80.37335369 26.37109375 84.72119141 C26.37613455 86.60596269 26.38296709 88.49073004 26.39160156 90.37548828 C26.40367828 93.07854175 26.40939279 95.7815437 26.41381836 98.48461914 C26.41897964 99.33253525 26.42414093 100.18045135 26.42945862 101.05406189 C26.42965406 103.07423608 26.37822422 105.09430473 26.31616211 107.11352539 C24.48582156 108.94386594 21.58404219 108.24395337 19.12866211 108.24633789 C17.87311523 108.24762695 16.61756836 108.24891602 15.32397461 108.25024414 C14.666875 108.24814941 14.00977539 108.24605469 13.33276367 108.24389648 C11.32454876 108.23854773 9.31655752 108.2438423 7.30834961 108.25024414 C6.05280273 108.24895508 4.79725586 108.24766602 3.50366211 108.24633789 C2.3422168 108.24520996 1.18077148 108.24408203 -0.01586914 108.24291992 C-2.68383789 108.11352539 -2.68383789 108.11352539 -3.68383789 107.11352539 C-3.68838446 105.08291451 -3.62227067 103.05208899 -3.52758789 101.02368164 C-3.47473633 99.76362305 -3.42188477 98.50356445 -3.36743164 97.20532227 C-3.24816805 94.55412495 -3.12428213 91.90317941 -3.00024414 89.25219727 C-2.70283624 82.09627314 -2.67190095 75.21276483 -3.68383789 68.11352539 C-4.31660645 68.12311279 -4.949375 68.1327002 -5.60131836 68.14257812 C-6.3297998 68.15361572 -7.05828125 68.16465332 -7.80883789 68.17602539 C-8.95739258 68.19342773 -8.95739258 68.19342773 -10.12915039 68.21118164 C-13.04403523 68.09975638 -15.81762954 67.64107388 -18.68383789 67.11352539 C-18.16149215 57.64257232 -17.48078763 48.19029019 -16.68383789 38.73852539 C-16.55936279 37.21376587 -16.55936279 37.21376587 -16.43237305 35.65820312 C-16.35035645 34.7076001 -16.26833984 33.75699707 -16.18383789 32.77758789 C-16.11165039 31.92632324 -16.03946289 31.07505859 -15.96508789 30.19799805 C-15.68383789 28.11352539 -15.68383789 28.11352539 -14.68383789 26.11352539 C-12.17993164 25.69946289 -12.17993164 25.69946289 -9.12133789 25.48852539 C-8.10942383 25.41375977 -7.09750977 25.33899414 -6.05493164 25.26196289 C-5.2724707 25.21297852 -4.49000977 25.16399414 -3.68383789 25.11352539 C-3.68907471 24.39173096 -3.69431152 23.66993652 -3.69970703 22.92626953 C-3.72041147 19.6761969 -3.73347707 16.42613811 -3.74633789 13.17602539 C-3.7547168 12.0397168 -3.7630957 10.9034082 -3.77172852 9.73266602 C-3.77495117 8.65307617 -3.77817383 7.57348633 -3.78149414 6.46118164 C-3.78673096 5.46094971 -3.79196777 4.46071777 -3.79736328 3.43017578 C-3.63333982 0.08303903 -3.37612531 0.1428089 0 0 Z " fill="#06010C" transform="translate(18.683837890625,0.886474609375)"/>
<path d="M0 0 C1.16781006 0.00523682 2.33562012 0.01047363 3.53881836 0.01586914 C4.79887695 0.0190918 6.05893555 0.02231445 7.35717773 0.02563477 C8.6976732 0.03399136 10.03816799 0.04245632 11.37866211 0.05102539 C12.72306153 0.05603879 14.06746271 0.06060197 15.41186523 0.06469727 C18.71334151 0.07653051 22.01473014 0.09301568 25.31616211 0.11352539 C26.21366033 3.18178919 26.43327979 5.90622515 26.41381836 9.09790039 C26.4105957 10.0324707 26.40737305 10.96704102 26.40405273 11.92993164 C26.39148437 13.38206055 26.39148437 13.38206055 26.37866211 14.86352539 C26.37415039 15.84708008 26.36963867 16.83063477 26.36499023 17.84399414 C26.35322694 20.2672333 26.33678895 22.69034812 26.31616211 25.11352539 C27.02643555 25.10192383 27.73670898 25.09032227 28.46850586 25.07836914 C29.38760742 25.0693457 30.30670898 25.06032227 31.25366211 25.05102539 C32.62844727 25.03362305 32.62844727 25.03362305 34.03100586 25.01586914 C36.31616211 25.11352539 36.31616211 25.11352539 37.31616211 26.11352539 C38.88748669 36.31743563 38.41304858 46.82202899 38.31616211 57.11352539 C36.83709319 57.14041755 35.35788728 57.15987161 33.87866211 57.17602539 C33.05495117 57.18762695 32.23124023 57.19922852 31.38256836 57.21118164 C29.31616211 57.11352539 29.31616211 57.11352539 28.31616211 56.11352539 C28.24364027 53.33049983 28.31991526 50.56072004 28.37866211 47.77758789 C28.44424785 45.00796526 28.44424785 45.00796526 27.31616211 42.11352539 C25.30107853 41.38028743 25.30107853 41.38028743 23.31616211 41.11352539 C22.65616211 38.80352539 21.99616211 36.49352539 21.31616211 34.11352539 C18.34616211 33.61852539 18.34616211 33.61852539 15.31616211 33.11352539 C15.31616211 32.45352539 15.31616211 31.79352539 15.31616211 31.11352539 C11.25162288 31.30377934 11.25162288 31.30377934 7.31616211 32.11352539 C5.58078019 34.50577498 5.58078019 34.50577498 4.31616211 37.11352539 C2.67582018 37.84256625 1.00314293 38.50007782 -0.68383789 39.11352539 C-6.04192807 42.12238813 -7.76612423 44.23253684 -9.68383789 50.11352539 C-12.74243164 51.79321289 -12.74243164 51.79321289 -15.68383789 53.11352539 C-15.71276174 48.98854001 -15.73061056 44.86358054 -15.74633789 40.73852539 C-15.7547168 39.56290039 -15.7630957 38.38727539 -15.77172852 37.17602539 C-15.77495117 36.05454102 -15.77817383 34.93305664 -15.78149414 33.77758789 C-15.78673096 32.74069824 -15.79196777 31.70380859 -15.79736328 30.63549805 C-15.68383789 28.11352539 -15.68383789 28.11352539 -14.68383789 26.11352539 C-12.17993164 25.69946289 -12.17993164 25.69946289 -9.12133789 25.48852539 C-8.10942383 25.41375977 -7.09750977 25.33899414 -6.05493164 25.26196289 C-5.2724707 25.21297852 -4.49000977 25.16399414 -3.68383789 25.11352539 C-3.68907471 24.39173096 -3.69431152 23.66993652 -3.69970703 22.92626953 C-3.72041147 19.6761969 -3.73347707 16.42613811 -3.74633789 13.17602539 C-3.7547168 12.0397168 -3.7630957 10.9034082 -3.77172852 9.73266602 C-3.77495117 8.65307617 -3.77817383 7.57348633 -3.78149414 6.46118164 C-3.78673096 5.46094971 -3.79196777 4.46071777 -3.79736328 3.43017578 C-3.63333982 0.08303903 -3.37612531 0.1428089 0 0 Z " fill="#060308" transform="translate(18.683837890625,0.886474609375)"/>
<path d="M0 0 C0.33 0 0.66 0 1 0 C1.05534912 0.82612793 1.11069824 1.65225586 1.16772461 2.50341797 C1.37704348 5.61597434 1.58783056 8.7284271 1.79956055 11.84082031 C1.93453704 13.83130551 2.06787289 15.82190175 2.20117188 17.8125 C2.68370544 24.88965894 3.22744113 31.94819074 4 39 C1.16730334 40.41634833 -1.47466438 40.3463005 -4.625 40.5625 C-5.81351563 40.64628906 -7.00203125 40.73007813 -8.2265625 40.81640625 C-9.14179687 40.87699219 -10.05703125 40.93757813 -11 41 C-10.99476318 42.17618896 -10.98952637 43.35237793 -10.98413086 44.56420898 C-10.96608337 48.91202031 -10.95456892 53.2598283 -10.94506836 57.60766602 C-10.94002756 59.4924373 -10.93319502 61.37720465 -10.92456055 63.26196289 C-10.91248383 65.96501636 -10.90676932 68.66801831 -10.90234375 71.37109375 C-10.89718246 72.21900986 -10.89202118 73.06692596 -10.88670349 73.9405365 C-10.88650805 75.96071068 -10.93793789 77.98077934 -11 80 C-12.83034055 81.83034055 -15.73211992 81.13042797 -18.1875 81.1328125 C-19.44304688 81.13410156 -20.69859375 81.13539062 -21.9921875 81.13671875 C-22.64928711 81.13462402 -23.30638672 81.1325293 -23.98339844 81.13037109 C-25.99161335 81.12502234 -27.99960459 81.13031691 -30.0078125 81.13671875 C-31.26335938 81.13542969 -32.51890625 81.13414063 -33.8125 81.1328125 C-34.97394531 81.13168457 -36.13539062 81.13055664 -37.33203125 81.12939453 C-40 81 -40 81 -41 80 C-41.00454657 77.96938912 -40.93843278 75.9385636 -40.84375 73.91015625 C-40.79089844 72.65009766 -40.73804688 71.39003906 -40.68359375 70.09179688 C-40.56433016 67.44059956 -40.44044424 64.78965402 -40.31640625 62.13867188 C-40.01899835 54.98274775 -39.98806306 48.09923944 -41 41 C-41.63276855 41.0095874 -42.26553711 41.0191748 -42.91748047 41.02905273 C-44.01020264 41.04560913 -44.01020264 41.04560913 -45.125 41.0625 C-45.89070313 41.07410156 -46.65640625 41.08570313 -47.4453125 41.09765625 C-50 41 -50 41 -56 40 C-55.67 34.72 -55.34 29.44 -55 24 C-54.67 24 -54.34 24 -54 24 C-54 26.97 -54 29.94 -54 33 C-53.01 33 -52.02 33 -51 33 C-51 32.01 -51 31.02 -51 30 C-50.01 30 -49.02 30 -48 30 C-48 32.31 -48 34.62 -48 37 C-46.68 37 -45.36 37 -44 37 C-44 36.01 -44 35.02 -44 34 C-43.01 34 -42.02 34 -41 34 C-40.67 29.05 -40.34 24.1 -40 19 C-39.67 19 -39.34 19 -39 19 C-38.505 34.345 -38.505 34.345 -38 50 C-37.01 50 -36.02 50 -35 50 C-34.34 51.98 -33.68 53.96 -33 56 C-32.67 55.34 -32.34 54.68 -32 54 C-31.34 54 -30.68 54 -30 54 C-30 54.66 -30 55.32 -30 56 C-28.68 56 -27.36 56 -26 56 C-26 54.02 -26 52.04 -26 50 C-25.01 49.505 -25.01 49.505 -24 49 C-22.11608215 52.26545761 -21.50712033 55.28111761 -21 59 C-20.34 56.03 -19.68 53.06 -19 50 C-17.35 50 -15.7 50 -14 50 C-13.67 42.74 -13.34 35.48 -13 28 C-12.67 28 -12.34 28 -12 28 C-12 29.65 -12 31.3 -12 33 C-9.69 33 -7.38 33 -5 33 C-5 32.01 -5 31.02 -5 30 C-3.02 30 -1.04 30 1 30 C0.89171875 28.13408203 0.89171875 28.13408203 0.78125 26.23046875 C0.28819995 17.48124723 -0.17731648 8.76731492 0 0 Z " fill="#6002B9" transform="translate(56,28)"/>
<path d="M0 0 C1.16781006 0.00523682 2.33562012 0.01047363 3.53881836 0.01586914 C4.79887695 0.0190918 6.05893555 0.02231445 7.35717773 0.02563477 C8.6976732 0.03399136 10.03816799 0.04245632 11.37866211 0.05102539 C12.72306153 0.05603879 14.06746271 0.06060197 15.41186523 0.06469727 C18.71334151 0.07653051 22.01473014 0.09301568 25.31616211 0.11352539 C26.21366033 3.18178919 26.43327979 5.90622515 26.41381836 9.09790039 C26.4105957 10.0324707 26.40737305 10.96704102 26.40405273 11.92993164 C26.39148437 13.38206055 26.39148437 13.38206055 26.37866211 14.86352539 C26.37415039 15.84708008 26.36963867 16.83063477 26.36499023 17.84399414 C26.35322711 20.26719733 26.33529229 22.69036916 26.31616211 25.11352539 C29.61616211 25.11352539 32.91616211 25.11352539 36.31616211 25.11352539 C33.11236194 27.24939217 32.29676244 27.34484714 28.62866211 27.23852539 C27.82041992 27.22047852 27.01217773 27.20243164 26.17944336 27.18383789 C25.56456055 27.16063477 24.94967773 27.13743164 24.31616211 27.11352539 C24.31616211 26.12352539 24.31616211 25.13352539 24.31616211 24.11352539 C23.65616211 24.11352539 22.99616211 24.11352539 22.31616211 24.11352539 C21.82116211 25.59852539 21.82116211 25.59852539 21.31616211 27.11352539 C20.32616211 27.11352539 19.33616211 27.11352539 18.31616211 27.11352539 C18.31616211 26.45352539 18.31616211 25.79352539 18.31616211 25.11352539 C16.99616211 24.78352539 15.67616211 24.45352539 14.31616211 24.11352539 C14.31616211 23.45352539 14.31616211 22.79352539 14.31616211 22.11352539 C13.88045898 22.47446289 13.44475586 22.83540039 12.99584961 23.20727539 C9.89553393 25.62310579 7.9750626 27.0265008 4.00366211 27.55102539 C1.31616211 27.11352539 1.31616211 27.11352539 -0.68383789 25.11352539 C-1.01383789 26.10352539 -1.34383789 27.09352539 -1.68383789 28.11352539 C-5.97383789 27.78352539 -10.26383789 27.45352539 -14.68383789 27.11352539 C-14.68383789 26.78352539 -14.68383789 26.45352539 -14.68383789 26.11352539 C-11.05383789 25.78352539 -7.42383789 25.45352539 -3.68383789 25.11352539 C-3.70124023 22.53217773 -3.70124023 22.53217773 -3.71899414 19.89868164 C-3.72837023 17.6577973 -3.73747062 15.4169118 -3.74633789 13.17602539 C-3.7547168 12.0397168 -3.7630957 10.9034082 -3.77172852 9.73266602 C-3.77495117 8.65307617 -3.77817383 7.57348633 -3.78149414 6.46118164 C-3.78673096 5.46094971 -3.79196777 4.46071777 -3.79736328 3.43017578 C-3.63333982 0.08303903 -3.37612531 0.1428089 0 0 Z " fill="#270241" transform="translate(18.683837890625,0.886474609375)"/>
<path d="M0 0 C2.01464008 0.01416267 4.02720045 0.16353846 6.03515625 0.328125 C6.03515625 0.988125 6.03515625 1.648125 6.03515625 2.328125 C4.71515625 2.328125 3.39515625 2.328125 2.03515625 2.328125 C3.35515625 2.658125 4.67515625 2.988125 6.03515625 3.328125 C6.03515625 4.318125 6.03515625 5.308125 6.03515625 6.328125 C6.96328125 6.575625 7.89140625 6.823125 8.84765625 7.078125 C12.33591796 8.44607077 13.44685716 8.97504914 15.03515625 12.328125 C15.26965592 15.04832115 15.17219285 17.5873929 15.03515625 20.328125 C14.04515625 20.328125 13.05515625 20.328125 12.03515625 20.328125 C12.03515625 21.648125 12.03515625 22.968125 12.03515625 24.328125 C9.66015625 25.953125 9.66015625 25.953125 7.03515625 27.328125 C6.37515625 27.988125 5.71515625 28.648125 5.03515625 29.328125 C2.41015625 29.453125 2.41015625 29.453125 0.03515625 29.328125 C-0.29484375 28.668125 -0.62484375 28.008125 -0.96484375 27.328125 C-3.28640972 26.92083272 -5.62172245 26.58373823 -7.96484375 26.328125 C-7.96484375 25.338125 -7.96484375 24.348125 -7.96484375 23.328125 C-8.62484375 23.328125 -9.28484375 23.328125 -9.96484375 23.328125 C-10.29484375 22.338125 -10.62484375 21.348125 -10.96484375 20.328125 C-11.62484375 23.628125 -12.28484375 26.928125 -12.96484375 30.328125 C-13.95484375 30.328125 -14.94484375 30.328125 -15.96484375 30.328125 C-15.96484375 31.318125 -15.96484375 32.308125 -15.96484375 33.328125 C-17.28484375 33.328125 -18.60484375 33.328125 -19.96484375 33.328125 C-19.96484375 31.018125 -19.96484375 28.708125 -19.96484375 26.328125 C-20.95484375 26.328125 -21.94484375 26.328125 -22.96484375 26.328125 C-22.96484375 27.318125 -22.96484375 28.308125 -22.96484375 29.328125 C-23.95484375 29.328125 -24.94484375 29.328125 -25.96484375 29.328125 C-25.96484375 22.728125 -25.96484375 16.128125 -25.96484375 9.328125 C-25.63484375 9.328125 -25.30484375 9.328125 -24.96484375 9.328125 C-24.63484375 13.288125 -24.30484375 17.248125 -23.96484375 21.328125 C-18.81617735 19.01073949 -18.81617735 19.01073949 -18.15234375 15.515625 C-16.43818634 10.91446563 -13.14415102 8.74896902 -8.96484375 6.328125 C-8.24554687 6.16054688 -7.52625 5.99296875 -6.78515625 5.8203125 C-6.18445313 5.65789063 -5.58375 5.49546875 -4.96484375 5.328125 C-4.55234375 4.4825 -4.13984375 3.636875 -3.71484375 2.765625 C-1.96484375 0.328125 -1.96484375 0.328125 0 0 Z " fill="#100217" transform="translate(27.96484375,31.671875)"/>
<path d="M0 0 C0.33 0 0.66 0 1 0 C1.05534912 0.82612793 1.11069824 1.65225586 1.16772461 2.50341797 C1.37704348 5.61597434 1.58783056 8.7284271 1.79956055 11.84082031 C1.93453704 13.83130551 2.06787289 15.82190175 2.20117188 17.8125 C2.68370544 24.88965894 3.22744113 31.94819074 4 39 C1.16730334 40.41634833 -1.47466438 40.3463005 -4.625 40.5625 C-5.81351563 40.64628906 -7.00203125 40.73007813 -8.2265625 40.81640625 C-9.14179687 40.87699219 -10.05703125 40.93757813 -11 41 C-10.99214478 42.76428345 -10.99214478 42.76428345 -10.98413086 44.56420898 C-10.96608337 48.91202031 -10.95456892 53.2598283 -10.94506836 57.60766602 C-10.94002756 59.4924373 -10.93319502 61.37720465 -10.92456055 63.26196289 C-10.91248383 65.96501636 -10.90676932 68.66801831 -10.90234375 71.37109375 C-10.89718246 72.21900986 -10.89202118 73.06692596 -10.88670349 73.9405365 C-10.88650805 75.96071068 -10.93793789 77.98077934 -11 80 C-12.83034055 81.83034055 -15.73211992 81.13042797 -18.1875 81.1328125 C-19.44304688 81.13410156 -20.69859375 81.13539062 -21.9921875 81.13671875 C-22.64928711 81.13462402 -23.30638672 81.1325293 -23.98339844 81.13037109 C-25.99161335 81.12502234 -27.99960459 81.13031691 -30.0078125 81.13671875 C-31.26335938 81.13542969 -32.51890625 81.13414063 -33.8125 81.1328125 C-34.97394531 81.13168457 -36.13539062 81.13055664 -37.33203125 81.12939453 C-40 81 -40 81 -41 80 C-41.14115161 77.32941149 -41.04247107 74.67567762 -41 72 C-40.01 71.505 -40.01 71.505 -39 71 C-39 73.97 -39 76.94 -39 80 C-38.04996094 79.84660156 -37.09992187 79.69320312 -36.12109375 79.53515625 C-31.45038433 78.86791205 -26.77201861 78.65596436 -22.0625 78.4375 C-21.18787109 78.39431641 -20.31324219 78.35113281 -19.41210938 78.30664062 C-17.27488005 78.20153099 -15.13745762 78.10036015 -13 78 C-13 74.04 -13 70.08 -13 66 C-13.99 66 -14.98 66 -16 66 C-16 65.01 -16 64.02 -16 63 C-17.32 63 -18.64 63 -20 63 C-20 64.65 -20 66.3 -20 68 C-20.66 68 -21.32 68 -22 68 C-23.20568053 63.32798795 -23.09382426 58.78503708 -23 54 C-23.99 54 -24.98 54 -26 54 C-25.67 52.35 -25.34 50.7 -25 49 C-22.16625119 52.20336822 -21.4794463 54.78087253 -21 59 C-20.34 56.03 -19.68 53.06 -19 50 C-17.35 50 -15.7 50 -14 50 C-13.67 42.74 -13.34 35.48 -13 28 C-12.67 28 -12.34 28 -12 28 C-12 29.65 -12 31.3 -12 33 C-9.69 33 -7.38 33 -5 33 C-5 32.01 -5 31.02 -5 30 C-3.02 30 -1.04 30 1 30 C0.89171875 28.13408203 0.89171875 28.13408203 0.78125 26.23046875 C0.28819995 17.48124723 -0.17731648 8.76731492 0 0 Z " fill="#542C71" transform="translate(56,28)"/>
<path d="M0 0 C0.12375 1.670625 0.12375 1.670625 0.25 3.375 C0.4975 4.57125 0.745 5.7675 1 7 C2.32 7.66 3.64 8.32 5 9 C5 12.63 5 16.26 5 20 C3.68 20 2.36 20 1 20 C1 20.66 1 21.32 1 22 C-1.97 22 -4.94 22 -8 22 C-8 21.34 -8 20.68 -8 20 C-8.99 19.67 -9.98 19.34 -11 19 C-11 18.34 -11 17.68 -11 17 C-12.32 17 -13.64 17 -15 17 C-15.25 13.6875 -15.25 13.6875 -15 10 C-13.0625 8.3125 -13.0625 8.3125 -11 7 C-10.6278958 5.67696283 -10.29369827 4.34262065 -10 3 C-7.47861915 -0.92214799 -4.31797192 -0.24441351 0 0 Z " fill="#1C0036" transform="translate(34,35)"/>
<path d="M0 0 C1.16781006 0.00523682 2.33562012 0.01047363 3.53881836 0.01586914 C4.79887695 0.0190918 6.05893555 0.02231445 7.35717773 0.02563477 C8.6976732 0.03399136 10.03816799 0.04245632 11.37866211 0.05102539 C12.72306153 0.05603879 14.06746271 0.06060197 15.41186523 0.06469727 C18.71334151 0.07653051 22.01473014 0.09301568 25.31616211 0.11352539 C26.21366033 3.18178919 26.43327979 5.90622515 26.41381836 9.09790039 C26.4105957 10.0324707 26.40737305 10.96704102 26.40405273 11.92993164 C26.39148437 13.38206055 26.39148437 13.38206055 26.37866211 14.86352539 C26.37415039 15.84708008 26.36963867 16.83063477 26.36499023 17.84399414 C26.35322711 20.26719733 26.33529229 22.69036916 26.31616211 25.11352539 C29.61616211 25.11352539 32.91616211 25.11352539 36.31616211 25.11352539 C32.11371671 27.91515566 29.31511276 27.25842251 24.31616211 27.11352539 C23.82116211 22.65852539 23.82116211 22.65852539 23.31616211 18.11352539 C22.32616211 19.10352539 21.33616211 20.09352539 20.31616211 21.11352539 C17.62866211 21.80102539 17.62866211 21.80102539 15.31616211 22.11352539 C13.96176543 19.40473204 14.2511476 17.10419271 14.31616211 14.11352539 C22.06616211 13.98852539 22.06616211 13.98852539 24.31616211 15.11352539 C24.31616211 10.49352539 24.31616211 5.87352539 24.31616211 1.11352539 C15.73616211 1.11352539 7.15616211 1.11352539 -1.68383789 1.11352539 C-1.35383789 5.07352539 -1.02383789 9.03352539 -0.68383789 13.11352539 C2.28616211 13.44352539 5.25616211 13.77352539 8.31616211 14.11352539 C8.12866211 16.42602539 8.12866211 16.42602539 7.31616211 19.11352539 C4.75366211 20.92602539 4.75366211 20.92602539 2.31616211 22.11352539 C1.32616211 21.45352539 0.33616211 20.79352539 -0.68383789 20.11352539 C-1.01383789 22.75352539 -1.34383789 25.39352539 -1.68383789 28.11352539 C-5.97383789 27.78352539 -10.26383789 27.45352539 -14.68383789 27.11352539 C-14.68383789 26.78352539 -14.68383789 26.45352539 -14.68383789 26.11352539 C-11.05383789 25.78352539 -7.42383789 25.45352539 -3.68383789 25.11352539 C-3.70124023 22.53217773 -3.70124023 22.53217773 -3.71899414 19.89868164 C-3.72837023 17.6577973 -3.73747062 15.4169118 -3.74633789 13.17602539 C-3.7547168 12.0397168 -3.7630957 10.9034082 -3.77172852 9.73266602 C-3.77495117 8.65307617 -3.77817383 7.57348633 -3.78149414 6.46118164 C-3.78673096 5.46094971 -3.79196777 4.46071777 -3.79736328 3.43017578 C-3.63333982 0.08303903 -3.37612531 0.1428089 0 0 Z " fill="#818184" transform="translate(18.683837890625,0.886474609375)"/>
<path d="M0 0 C0.87785156 0.15726563 1.75570312 0.31453125 2.66015625 0.4765625 C4.9375 1.375 4.9375 1.375 6.24609375 3.2734375 C6.9375 5.375 6.9375 5.375 6.9375 8.375 C9.4125 8.87 9.4125 8.87 11.9375 9.375 C12.70862541 14.09814313 13.03514874 18.59021178 12.9375 23.375 C13.9275 23.705 14.9175 24.035 15.9375 24.375 C15.9375 25.365 15.9375 26.355 15.9375 27.375 C13.6275 27.375 11.3175 27.375 8.9375 27.375 C8.6075 26.385 8.2775 25.395 7.9375 24.375 C4.40377288 26.33818174 1.69270215 28.41570881 -1.0625 31.375 C-1.3925 30.715 -1.7225 30.055 -2.0625 29.375 C-2.7225 29.705 -3.3825 30.035 -4.0625 30.375 C-4.0625 29.715 -4.0625 29.055 -4.0625 28.375 C-7.3625 28.375 -10.6625 28.375 -14.0625 28.375 C-14.3925 27.055 -14.7225 25.735 -15.0625 24.375 C-12.7525 24.375 -10.4425 24.375 -8.0625 24.375 C-7.7325 25.365 -7.4025 26.355 -7.0625 27.375 C-3.16295751 26.2484655 -0.8447427 25.28973044 1.9375 22.375 C2.9275 22.375 3.9175 22.375 4.9375 22.375 C4.9375 21.055 4.9375 19.735 4.9375 18.375 C5.9275 18.375 6.9175 18.375 7.9375 18.375 C7.5385471 12.0130199 7.5385471 12.0130199 4.9375 6.375 C2.96669843 5.63223969 2.96669843 5.63223969 0.9375 5.375 C0.2775 5.045 -0.3825 4.715 -1.0625 4.375 C-1.0625 3.385 -1.0625 2.395 -1.0625 1.375 C-3.3725 1.375 -5.6825 1.375 -8.0625 1.375 C-4.57244351 -0.95170433 -3.94370368 -0.77828615 0 0 Z " fill="#160122" transform="translate(35.0625,33.625)"/>
<path d="M0 0 C8.58 0 17.16 0 26 0 C26 2.97 26 5.94 26 9 C25.01 9 24.02 9 23 9 C23 8.34 23 7.68 23 7 C19.33625187 7.45036291 19.33625187 7.45036291 16.4375 9.5625 C15.963125 10.036875 15.48875 10.51125 15 11 C13.68 11 12.36 11 11 11 C10.525625 10.34 10.05125 9.68 9.5625 9 C9.046875 8.34 8.53125 7.68 8 7 C5.37374861 6.66574265 5.37374861 6.66574265 3 7 C3 7.66 3 8.32 3 9 C2.01 9.33 1.02 9.66 0 10 C0 6.7 0 3.4 0 0 Z " fill="#07010C" transform="translate(17,2)"/>
<path d="M0 0 C0.33 1.32 0.66 2.64 1 4 C0.360625 4.350625 -0.27875 4.70125 -0.9375 5.0625 C-3.82163832 7.77184206 -3.7100822 10.15858911 -4 14 C-2.68 14 -1.36 14 0 14 C1.75 15.375 1.75 15.375 3 17 C3 17.66 3 18.32 3 19 C5.97 19 8.94 19 12 19 C12 18.34 12 17.68 12 17 C12.99 16.67 13.98 16.34 15 16 C15.33 12.7 15.66 9.4 16 6 C14.35 5.34 12.7 4.68 11 4 C11 2.68 11 1.36 11 0 C14.07948132 0.82119502 16.44583525 1.51972388 18.875 3.625 C20.55085699 7.16292031 20.19458938 10.10821244 20 14 C19.01 14 18.02 14 17 14 C17 15.32 17 16.64 17 18 C14.625 19.625 14.625 19.625 12 21 C11.34 21.66 10.68 22.32 10 23 C7.375 23.125 7.375 23.125 5 23 C4.67 22.34 4.34 21.68 4 21 C1.67843403 20.59270772 -0.6568787 20.25561323 -3 20 C-3 19.01 -3 18.02 -3 17 C-3.66 17 -4.32 17 -5 17 C-5.66 15.35 -6.32 13.7 -7 12 C-7.99 12 -8.98 12 -10 12 C-10.33 10.68 -10.66 9.36 -11 8 C-10.01 7.67 -9.02 7.34 -8 7 C-7.34 6.01 -6.68 5.02 -6 4 C-4.35857037 2.9590934 -2.69287785 1.95495674 -1 1 C-0.67 0.67 -0.34 0.34 0 0 Z " fill="#200138" transform="translate(23,38)"/>
<path d="M0 0 C0.33 0 0.66 0 1 0 C1 10.56 1 21.12 1 32 C0.67 32 0.34 32 0 32 C-0.33 28.7 -0.66 25.4 -1 22 C-4.22265625 22.04882812 -4.22265625 22.04882812 -7.4453125 22.09765625 C-10 22 -10 22 -16 21 C-15.67 15.72 -15.34 10.44 -15 5 C-14.67 5 -14.34 5 -14 5 C-14 7.97 -14 10.94 -14 14 C-13.01 14 -12.02 14 -11 14 C-11 13.01 -11 12.02 -11 11 C-10.01 11 -9.02 11 -8 11 C-8 13.31 -8 15.62 -8 18 C-6.68 18 -5.36 18 -4 18 C-4 17.01 -4 16.02 -4 15 C-3.01 15 -2.02 15 -1 15 C-0.67 10.05 -0.34 5.1 0 0 Z " fill="#9663A3" transform="translate(16,47)"/>
<path d="M0 0 C2.31 0 4.62 0 7 0 C7 0.99 7 1.98 7 3 C8.32 3 9.64 3 11 3 C11 4.98 11 6.96 11 9 C9.68 9.33 8.36 9.66 7 10 C7 11.32 7 12.64 7 14 C4.69 14 2.38 14 0 14 C0 12.68 0 11.36 0 10 C-0.99 10 -1.98 10 -3 10 C-3 7.69 -3 5.38 -3 3 C-2.34 3 -1.68 3 -1 3 C-0.67 2.01 -0.34 1.02 0 0 Z " fill="#5903AF" transform="translate(27,42)"/>
<path d="M0 0 C0.33 0 0.66 0 1 0 C1.05534912 0.82612793 1.11069824 1.65225586 1.16772461 2.50341797 C1.37704348 5.61597434 1.58783056 8.7284271 1.79956055 11.84082031 C1.93453704 13.83130551 2.06787289 15.82190175 2.20117188 17.8125 C2.68370544 24.88965894 3.22744113 31.94819074 4 39 C1.18516249 40.40741875 -1.43243894 40.38449037 -4.5625 40.625 C-5.73941406 40.72039062 -6.91632812 40.81578125 -8.12890625 40.9140625 C-9.07636719 40.94242188 -10.02382813 40.97078125 -11 41 C-12 40 -12 40 -12.0625 36.9375 C-12.041875 35.968125 -12.02125 34.99875 -12 34 C-10.35 34 -8.7 34 -7 34 C-7 34.66 -7 35.32 -7 36 C-6.01 36 -5.02 36 -4 36 C-4 34.02 -4 32.04 -4 30 C-2.35 30 -0.7 30 1 30 C0.9278125 28.75605469 0.855625 27.51210938 0.78125 26.23046875 C0.28819995 17.48124723 -0.17731648 8.76731492 0 0 Z " fill="#90339A" transform="translate(56,28)"/>
<path d="M0 0 C0.33 0 0.66 0 1 0 C1 3.3 1 6.6 1 10 C1.99 10 2.98 10 4 10 C4.66 11.98 5.32 13.96 6 16 C6.33 15.34 6.66 14.68 7 14 C7.66 14 8.32 14 9 14 C9 14.66 9 15.32 9 16 C10.32 16.33 11.64 16.66 13 17 C12.67 19.97 12.34 22.94 12 26 C11.34 25.34 10.68 24.68 10 24 C10 22.68 10 21.36 10 20 C9.01 20 8.02 20 7 20 C7 23.3 7 26.6 7 30 C6.01 30 5.02 30 4 30 C3.67 28.02 3.34 26.04 3 24 C2.01 23.67 1.02 23.34 0 23 C0 15.41 0 7.82 0 0 Z " fill="#361058" transform="translate(17,68)"/>
<path d="M0 0 C0.33 0 0.66 0 1 0 C1 2.31 1 4.62 1 7 C0.34 7 -0.32 7 -1 7 C-1.33 7.99 -1.66 8.98 -2 10 C-2.99 10 -3.98 10 -5 10 C-5 9.34 -5 8.68 -5 8 C-6.32 7.67 -7.64 7.34 -9 7 C-9 6.34 -9 5.68 -9 5 C-9.43570313 5.3609375 -9.87140625 5.721875 -10.3203125 6.09375 C-13.42062818 8.5095804 -15.3410995 9.91297541 -19.3125 10.4375 C-22 10 -22 10 -24 8 C-24.33 8 -24.66 8 -25 8 C-25 6.02 -25 4.04 -25 2 C-24.29875 2.53625 -23.5975 3.0725 -22.875 3.625 C-20.03764475 5.34421366 -20.03764475 5.34421366 -16.875 4.3125 C-13.89161753 3.04262168 -13.89161753 3.04262168 -11 1 C-10.67 1.99 -10.34 2.98 -10 4 C-5.19606778 3.69286316 -5.19606778 3.69286316 -1.125 1.4375 C-0.75375 0.963125 -0.3825 0.48875 0 0 Z " fill="#1B022B" transform="translate(42,18)"/>
<path d="M0 0 C0.33 0 0.66 0 1 0 C1 2.97 1 5.94 1 9 C2.98 9.495 2.98 9.495 5 10 C5 11.98 5 13.96 5 16 C5.99 16 6.98 16 8 16 C8 19.3 8 22.6 8 26 C5.69 26 3.38 26 1 26 C-0.25981943 17.3387414 -0.09020653 8.72998757 0 0 Z " fill="#7E20B3" transform="translate(16,82)"/>
<path d="M0 0 C2.83374881 3.20336822 3.5205537 5.78087253 4 10 C4.66 7.03 5.32 4.06 6 1 C7.66611905 0.957279 9.33382885 0.95936168 11 1 C12 2 12 2 12.09765625 4.06640625 C12.08605469 4.89011719 12.07445312 5.71382813 12.0625 6.5625 C12.05347656 7.38878906 12.04445313 8.21507813 12.03515625 9.06640625 C12.02355469 9.70449219 12.01195312 10.34257813 12 11 C10.02 11 8.04 11 6 11 C5.67 13.64 5.34 16.28 5 19 C4.34 19 3.68 19 3 19 C1.79431947 14.32798795 1.90617574 9.78503708 2 5 C1.01 5 0.02 5 -1 5 C-0.67 3.35 -0.34 1.7 0 0 Z " fill="#300252" transform="translate(31,77)"/>
<path d="M0 0 C0 0.99 0 1.98 0 3 C4.33229715 2.1395861 4.33229715 2.1395861 8 0 C9.66617115 -0.04063832 11.33388095 -0.042721 13 0 C13 0.99 13 1.98 13 3 C13.99 3 14.98 3 16 3 C16 3.99 16 4.98 16 6 C15.01 6 14.02 6 13 6 C13 5.34 13 4.68 13 4 C9.33625187 4.45036291 9.33625187 4.45036291 6.4375 6.5625 C5.963125 7.036875 5.48875 7.51125 5 8 C3.68 8 2.36 8 1 8 C0.525625 7.34 0.05125 6.68 -0.4375 6 C-0.953125 5.34 -1.46875 4.68 -2 4 C-4.62625139 3.66574265 -4.62625139 3.66574265 -7 4 C-7 4.66 -7 5.32 -7 6 C-7.99 6.33 -8.98 6.66 -10 7 C-10 3 -10 3 -8.9375 1.25 C-6.01701466 -0.63418409 -3.38552395 -0.19163343 0 0 Z " fill="#140122" transform="translate(27,5)"/>
<path d="M0 0 C0.99 0 1.98 0 3 0 C3 0.99 3 1.98 3 3 C3.99 3 4.98 3 6 3 C7.33106125 6.99318374 7.13647721 10.83744513 7 15 C6.67 15.33 6.34 15.66 6 16 C4.02 16 2.04 16 0 16 C0 10.72 0 5.44 0 0 Z " fill="#7A15BA" transform="translate(37,91)"/>
<path d="M0 0 C0.33 0 0.66 0 1 0 C1.33 4.62 1.66 9.24 2 14 C3.65 14.33 5.3 14.66 7 15 C7 15.66 7 16.32 7 17 C7.66 17 8.32 17 9 17 C9.33 16.34 9.66 15.68 10 15 C10.99 15 11.98 15 13 15 C13.33 14.01 13.66 13.02 14 12 C13.67 14.97 13.34 17.94 13 21 C12.01 21 11.02 21 10 21 C10 21.99 10 22.98 10 24 C8.68 24 7.36 24 6 24 C6 21.69 6 19.38 6 17 C5.01 17 4.02 17 3 17 C3 17.99 3 18.98 3 20 C2.01 20 1.02 20 0 20 C0 13.4 0 6.8 0 0 Z " fill="#501E57" transform="translate(2,41)"/>
<path d="M0 0 C0.33 0 0.66 0 1 0 C1.33 5.94 1.66 11.88 2 18 C5.3 18 8.6 18 12 18 C7.7975546 20.80163026 4.99895065 20.14489712 0 20 C-0.33 17.03 -0.66 14.06 -1 11 C-1.99 11.99 -2.98 12.98 -4 14 C-6.6875 14.6875 -6.6875 14.6875 -9 15 C-10.35439668 12.29120665 -10.06501451 9.99066732 -10 7 C-2.25 6.875 -2.25 6.875 0 8 C0 5.36 0 2.72 0 0 Z " fill="#452D54" transform="translate(43,8)"/>
<path d="M0 0 C0.33 1.32 0.66 2.64 1 4 C0.360625 4.350625 -0.27875 4.70125 -0.9375 5.0625 C-3.82163832 7.77184206 -3.7100822 10.15858911 -4 14 C-2.68 14 -1.36 14 0 14 C0.33 15.98 0.66 17.96 1 20 C-0.32 20 -1.64 20 -3 20 C-3 19.01 -3 18.02 -3 17 C-3.66 17 -4.32 17 -5 17 C-5.66 15.35 -6.32 13.7 -7 12 C-7.99 12 -8.98 12 -10 12 C-10.33 10.68 -10.66 9.36 -11 8 C-10.01 7.67 -9.02 7.34 -8 7 C-7.34 6.01 -6.68 5.02 -6 4 C-4.35857037 2.9590934 -2.69287785 1.95495674 -1 1 C-0.67 0.67 -0.34 0.34 0 0 Z " fill="#1A022A" transform="translate(23,38)"/>
<path d="M0 0 C2.475 0.99 2.475 0.99 5 2 C5 5.63 5 9.26 5 13 C3.68 13 2.36 13 1 13 C1 13.66 1 14.32 1 15 C-1.97 15 -4.94 15 -8 15 C-8 14.34 -8 13.68 -8 13 C-8.99 12.67 -9.98 12.34 -11 12 C-13.29013653 8.5647952 -13.17842973 7.014669 -13 3 C-12.01 3 -11.02 3 -10 3 C-10 5.31 -10 7.62 -10 10 C-9.01 10 -8.02 10 -7 10 C-7 11.32 -7 12.64 -7 14 C-4.69 14 -2.38 14 0 14 C0 12.68 0 11.36 0 10 C0.99 9.67 1.98 9.34 3 9 C3.33 7.02 3.66 5.04 4 3 C2.68 3 1.36 3 0 3 C0 2.01 0 1.02 0 0 Z " fill="#2D0054" transform="translate(34,42)"/>
<path d="M0 0 C3.3 0.33 6.6 0.66 10 1 C9.8125 3.3125 9.8125 3.3125 9 6 C6.4375 7.8125 6.4375 7.8125 4 9 C2 7.875 2 7.875 0 6 C-0.25 2.8125 -0.25 2.8125 0 0 Z " fill="#2E0543" transform="translate(17,14)"/>
<path d="M0 0 C0.86625 0.4640625 0.86625 0.4640625 1.75 0.9375 C3.84294184 1.92583364 5.74535275 2.5168613 8 3 C7.01 3 6.02 3 5 3 C5 6.3 5 9.6 5 13 C4.01 13 3.02 13 2 13 C1.87625 12.030625 1.7525 11.06125 1.625 10.0625 C1.41875 9.051875 1.2125 8.04125 1 7 C0.34 6.67 -0.32 6.34 -1 6 C-1.042721 4.33388095 -1.04063832 2.66617115 -1 1 C-0.67 0.67 -0.34 0.34 0 0 Z " fill="#470273" transform="translate(19,85)"/>
<path d="M0 0 C0.33 0 0.66 0 1 0 C1 2.97 1 5.94 1 9 C1.99 9.33 2.98 9.66 4 10 C3.34 10 2.68 10 2 10 C2.08378906 10.74765625 2.16757812 11.4953125 2.25390625 12.265625 C2.35574219 13.25046875 2.45757813 14.2353125 2.5625 15.25 C2.66691406 16.22453125 2.77132813 17.1990625 2.87890625 18.203125 C2.98974468 20.7631352 2.77738092 22.58148159 2 25 C3.98 25 5.96 25 8 25 C8 25.33 8 25.66 8 26 C5.69 26 3.38 26 1 26 C-0.25981943 17.3387414 -0.09020653 8.72998757 0 0 Z " fill="#7B3F9C" transform="translate(16,82)"/>
<path d="M0 0 C1.98 0 3.96 0 6 0 C6 0.66 6 1.32 6 2 C6.66 2 7.32 2 8 2 C8.33 1.34 8.66 0.68 9 0 C9 1.98 9 3.96 9 6 C7.68 6 6.36 6 5 6 C5 5.34 5 4.68 5 4 C4.34 4 3.68 4 3 4 C2.67 4.99 2.34 5.98 2 7 C0 5 0 5 -0.125 2.375 C-0.08375 1.59125 -0.0425 0.8075 0 0 Z " fill="#1C0132" transform="translate(21,78)"/>
<path d="M0 0 C0.99 0 1.98 0 3 0 C3.33 2.97 3.66 5.94 4 9 C1.69 9 -0.62 9 -3 9 C-3 7.02 -3 5.04 -3 3 C-2.01 3 -1.02 3 0 3 C0 2.01 0 1.02 0 0 Z " fill="#A60EB6" transform="translate(5,58)"/>
<path d="M0 0 C0.99 0 1.98 0 3 0 C3.33 4.62 3.66 9.24 4 14 C4.66 14 5.32 14 6 14 C6 12.35 6 10.7 6 9 C6.33 9 6.66 9 7 9 C7 11.64 7 14.28 7 17 C5.68 17 4.36 17 3 17 C2 16 2 16 1.90234375 12.83984375 C1.91974609 10.90818359 1.91974609 10.90818359 1.9375 8.9375 C1.94652344 7.64714844 1.95554687 6.35679688 1.96484375 5.02734375 C1.97644531 4.02832031 1.98804687 3.02929688 2 2 C1.34 2 0.68 2 0 2 C0 1.34 0 0.68 0 0 Z " fill="#4F0696" transform="translate(30,82)"/>
<path d="M0 0 C1.98 0 3.96 0 6 0 C6 2.31 6 4.62 6 7 C3.03 6.505 3.03 6.505 0 6 C-0.33 6.99 -0.66 7.98 -1 9 C-1.125 2.25 -1.125 2.25 0 0 Z " fill="#170123" transform="translate(37,72)"/>
<path d="M0 0 C0.33 0 0.66 0 1 0 C1.9097804 7.39927377 2.12410745 14.67523781 2.0625 22.125 C2.05798828 23.176875 2.05347656 24.22875 2.04882812 25.3125 C2.03718011 27.87506221 2.02082553 30.43749877 2 33 C1.01 33 0.02 33 -1 33 C-1 32.01 -1 31.02 -1 30 C-0.34 30 0.32 30 1 30 C0.9278125 28.75605469 0.855625 27.51210938 0.78125 26.23046875 C0.28819995 17.48124723 -0.17731648 8.76731492 0 0 Z " fill="#5B475F" transform="translate(56,28)"/>
<path d="M0 0 C1.65 0 3.3 0 5 0 C5 1.65 5 3.3 5 5 C7.97 5 10.94 5 14 5 C14 5.33 14 5.66 14 6 C11.85473901 6.19393875 9.70876323 6.37998676 7.5625 6.5625 C5.77005859 6.71912109 5.77005859 6.71912109 3.94140625 6.87890625 C2.97074219 6.91886719 2.00007813 6.95882812 1 7 C0 6 0 6 -0.0625 2.9375 C-0.041875 1.968125 -0.02125 0.99875 0 0 Z " fill="#9046A3" transform="translate(44,62)"/>
<path d="M0 0 C2.625 0.3125 2.625 0.3125 4.4375 2.3125 C4.829375 2.9725 5.22125 3.6325 5.625 4.3125 C2.985 4.3125 0.345 4.3125 -2.375 4.3125 C-2.375 5.3025 -2.375 6.2925 -2.375 7.3125 C-3.365 6.9825 -4.355 6.6525 -5.375 6.3125 C-3.10421109 0.40844883 -3.10421109 0.40844883 0 0 Z " fill="#210133" transform="translate(22.375,7.6875)"/>
<path d="M0 0 C0.33 0 0.66 0 1 0 C1 6.93 1 13.86 1 21 C-3.29 20.67 -7.58 20.34 -12 20 C-12 19.67 -12 19.34 -12 19 C-8.37 18.67 -4.74 18.34 -1 18 C-0.505 9.09 -0.505 9.09 0 0 Z " fill="#6A6571" transform="translate(16,8)"/>
<path d="M0 0 C0.33 0 0.66 0 1 0 C0.67 2.97 0.34 5.94 0 9 C-1.98 9 -3.96 9 -6 9 C-6 7.68 -6 6.36 -6 5 C-5.34 5 -4.68 5 -4 5 C-3.67 4.34 -3.34 3.68 -3 3 C-2.01 3 -1.02 3 0 3 C0 2.01 0 1.02 0 0 Z " fill="#360D41" transform="translate(15,53)"/>
<path d="M0 0 C0.33 0 0.66 0 1 0 C1 3.3 1 6.6 1 10 C-0.98 10 -2.96 10 -5 10 C-5 7.69 -5 5.38 -5 3 C-4.01 3 -3.02 3 -2 3 C-1.67 4.32 -1.34 5.64 -1 7 C-0.67 4.69 -0.34 2.38 0 0 Z " fill="#56079E" transform="translate(29,85)"/>
<path d="M0 0 C0.33 0 0.66 0 1 0 C1 1.65 1 3.3 1 5 C3.31 5 5.62 5 8 5 C8.33 4.01 8.66 3.02 9 2 C9 3.98 9 5.96 9 8 C8.01 8 7.02 8 6 8 C6 7.34 6 6.68 6 6 C5.01 6 4.02 6 3 6 C2.87625 6.61875 2.7525 7.2375 2.625 7.875 C2 10 2 10 0 12 C0 8.04 0 4.08 0 0 Z " fill="#4E1F5C" transform="translate(43,56)"/>
<path d="M0 0 C0.66 0 1.32 0 2 0 C3.28317892 3.84953676 3.06643637 6.94738135 3 11 C2.01 11.33 1.02 11.66 0 12 C0 8.04 0 4.08 0 0 Z " fill="#8628B7" transform="translate(41,95)"/>
<path d="M0 0 C2.0625 0.4375 2.0625 0.4375 4 1 C4 2.65 4 4.3 4 6 C2.02 6 0.04 6 -2 6 C-1.125 1.125 -1.125 1.125 0 0 Z " fill="#200423" transform="translate(53,52)"/>
<path d="M0 0 C0.99 0.495 0.99 0.495 2 1 C1.67 2.32 1.34 3.64 1 5 C1.99 5.33 2.98 5.66 4 6 C4 6.99 4 7.98 4 9 C5.98 8.34 7.96 7.68 10 7 C10 8.32 10 9.64 10 11 C7.69 11 5.38 11 3 11 C3 9.68 3 8.36 3 7 C2.01 7 1.02 7 0 7 C0 4.69 0 2.38 0 0 Z " fill="#500698" transform="translate(24,45)"/>
<path d="M0 0 C0.99 0 1.98 0 3 0 C3 2.31 3 4.62 3 7 C3.99 7 4.98 7 6 7 C6 7.99 6 8.98 6 10 C4.125 9.6875 4.125 9.6875 2 9 C-0.29013653 5.5647952 -0.17842973 4.014669 0 0 Z " fill="#370163" transform="translate(21,45)"/>
<path d="M0 0 C0 1.32 0 2.64 0 4 C-1.134375 4.12375 -2.26875 4.2475 -3.4375 4.375 C-5.2009375 4.684375 -5.2009375 4.684375 -7 5 C-7.33 5.66 -7.66 6.32 -8 7 C-8.66 6.67 -9.32 6.34 -10 6 C-7.25328971 0.89896661 -5.96171676 0 0 0 Z " fill="#2F0059" transform="translate(34,38)"/>
<path d="M0 0 C0.99 0.33 1.98 0.66 3 1 C3 1.66 3 2.32 3 3 C3.99 3 4.98 3 6 3 C6 4.65 6 6.3 6 8 C5.01 7.67 4.02 7.34 3 7 C3 6.01 3 5.02 3 4 C1.02 4 -0.96 4 -3 4 C-2.67 3.01 -2.34 2.02 -2 1 C-1.34 0.67 -0.68 0.34 0 0 Z " fill="#230134" transform="translate(37,8)"/>
<path d="M0 0 C0.99 0 1.98 0 3 0 C3 3.3 3 6.6 3 10 C2.01 10 1.02 10 0 10 C0 6.7 0 3.4 0 0 Z " fill="#1D032B" transform="translate(18,68)"/>
<path d="M0 0 C2.31 0 4.62 0 7 0 C7 1.32 7 2.64 7 4 C4.69 4 2.38 4 0 4 C0 2.68 0 1.36 0 0 Z " fill="#8858A4" transform="translate(33,15)"/>
<path d="M0 0 C2.31 0 4.62 0 7 0 C7 1.32 7 2.64 7 4 C4.69 4 2.38 4 0 4 C0 2.68 0 1.36 0 0 Z " fill="#8759A3" transform="translate(20,15)"/>
<path d="M0 0 C1.98 0 3.96 0 6 0 C6 1.98 6 3.96 6 6 C5.01 6 4.02 6 3 6 C3 5.01 3 4.02 3 3 C2.01 3 1.02 3 0 3 C0 2.01 0 1.02 0 0 Z " fill="#560484" transform="translate(37,88)"/>
<path d="M0 0 C3 1 3 1 4 3 C4.04022391 5.3329866 4.04320247 7.66706666 4 10 C2 8.9375 2 8.9375 0 7 C-0.25 3.3125 -0.25 3.3125 0 0 Z " fill="#18032F" transform="translate(30,71)"/>
<path d="M0 0 C0.99 0 1.98 0 3 0 C3.33 1.98 3.66 3.96 4 6 C2.35 6 0.7 6 -1 6 C-0.67 4.02 -0.34 2.04 0 0 Z " fill="#41026B" transform="translate(38,82)"/>
<path d="M0 0 C0 1.98 0 3.96 0 6 C-1.98 6 -3.96 6 -6 6 C-6 5.01 -6 4.02 -6 3 C-5.01 3 -4.02 3 -3 3 C-3 2.34 -3 1.68 -3 1 C-1 0 -1 0 0 0 Z " fill="#0F011A" transform="translate(27,72)"/>
<path d="M0 0 C0.99 0 1.98 0 3 0 C3 1.32 3 2.64 3 4 C0.69 4.33 -1.62 4.66 -4 5 C-4 4.01 -4 3.02 -4 2 C-2.68 2 -1.36 2 0 2 C0 1.34 0 0.68 0 0 Z " fill="#940FA8" transform="translate(53,62)"/>
<path d="M0 0 C-0.33 0.99 -0.66 1.98 -1 3 C-1.99 3 -2.98 3 -4 3 C-3.67 5.31 -3.34 7.62 -3 10 C-3.99 10 -4.98 10 -6 10 C-6.25 6.6875 -6.25 6.6875 -6 3 C-3.96080228 0.89282902 -2.95416573 0 0 0 Z " fill="#28013E" transform="translate(25,42)"/>
<path d="M0 0 C0.66 1.32 1.32 2.64 2 4 C1.2575 4.4125 0.515 4.825 -0.25 5.25 C-2.90171685 6.93745618 -4.86674014 8.70872089 -7 11 C-6.40716379 7.60807637 -5.23256811 5.7892243 -2.9375 3.25 C-2.38964844 2.63640625 -1.84179688 2.0228125 -1.27734375 1.390625 C-0.85582031 0.93171875 -0.43429688 0.4728125 0 0 Z " fill="#0E0017" transform="translate(41,54)"/>
<path d="M0 0 C1.98 0 3.96 0 6 0 C6.33 1.32 6.66 2.64 7 4 C5.02 4 3.04 4 1 4 C0.67 2.68 0.34 1.36 0 0 Z " fill="#10001B" transform="translate(20,58)"/>
<path d="M0 0 C0.99 0 1.98 0 3 0 C3 2.31 3 4.62 3 7 C2.01 7.33 1.02 7.66 0 8 C0 5.36 0 2.72 0 0 Z " fill="#3C0459" transform="translate(18,78)"/>
<path d="M0 0 C2.80045623 3.14591933 3.35261589 5.067064 3.1875 9.25 C3.16042969 10.14203125 3.13335937 11.0340625 3.10546875 11.953125 C3.07066406 12.62859375 3.03585938 13.3040625 3 14 C2.67 14 2.34 14 2 14 C2 11.03 2 8.06 2 5 C1.01 5 0.02 5 -1 5 C-0.67 3.35 -0.34 1.7 0 0 Z " fill="#2E015E" transform="translate(31,77)"/>
<path d="M0 0 C0.99 0 1.98 0 3 0 C3 0.99 3 1.98 3 3 C3.99 3.33 4.98 3.66 6 4 C5.01 4 4.02 4 3 4 C2.67 4.66 2.34 5.32 2 6 C1.01 6.495 1.01 6.495 0 7 C0 4.69 0 2.38 0 0 Z " fill="#7216AB" transform="translate(37,91)"/>
<path d="M0 0 C0.66 0.33 1.32 0.66 2 1 C2 1.66 2 2.32 2 3 C6.60742865 1.78955868 6.60742865 1.78955868 11 0 C10.34 1.32 9.68 2.64 9 4 C6.03 4 3.06 4 0 4 C0 2.68 0 1.36 0 0 Z " fill="#0C0014" transform="translate(18,25)"/>
<path d="M0 0 C1.98 0 3.96 0 6 0 C6 0.99 6 1.98 6 3 C3.69 3 1.38 3 -1 3 C-0.67 2.01 -0.34 1.02 0 0 Z " fill="#33033D" transform="translate(45,58)"/>
<path d="M0 0 C0.33 0 0.66 0 1 0 C0.67 2.64 0.34 5.28 0 8 C-0.99 8 -1.98 8 -3 8 C-3.33 6.68 -3.66 5.36 -4 4 C-3.01 3.67 -2.02 3.34 -1 3 C-0.67 2.01 -0.34 1.02 0 0 Z " fill="#291437" transform="translate(16,42)"/>
<path d="M0 0 C0.99 0 1.98 0 3 0 C3 0.66 3 1.32 3 2 C2.34 2 1.68 2 1 2 C0.67 2.99 0.34 3.98 0 5 C-0.99 5 -1.98 5 -3 5 C-3 4.34 -3 3.68 -3 3 C-3.99 2.67 -4.98 2.34 -6 2 C-4.02 2 -2.04 2 0 2 C0 1.34 0 0.68 0 0 Z " fill="#170123" transform="translate(40,23)"/>
<path d="M0 0 C1.32 0 2.64 0 4 0 C4 1.65 4 3.3 4 5 C2.68 5 1.36 5 0 5 C0 3.35 0 1.7 0 0 Z " fill="#7813B8" transform="translate(20,102)"/>
<path d="M0 0 C0.33 1.65 0.66 3.3 1 5 C-1.97 4.505 -1.97 4.505 -5 4 C-4.67 3.01 -4.34 2.02 -4 1 C-2 0 -2 0 0 0 Z " fill="#210332" transform="translate(42,74)"/>
<path d="M0 0 C1.125 1.75 1.125 1.75 2 4 C1.125 6.25 1.125 6.25 0 8 C-0.66 7.67 -1.32 7.34 -2 7 C-1.125 1.125 -1.125 1.125 0 0 Z " fill="#07000E" transform="translate(11,51)"/>
<path d="M0 0 C1.32 0 2.64 0 4 0 C3.67 1.98 3.34 3.96 3 6 C2.01 5.67 1.02 5.34 0 5 C0 3.35 0 1.7 0 0 Z " fill="#17041E" transform="translate(12,50)"/>
<path d="M0 0 C0.99 0 1.98 0 3 0 C3 1.98 3 3.96 3 6 C2.01 6 1.02 6 0 6 C0 4.02 0 2.04 0 0 Z " fill="#4D0087" transform="translate(21,92)"/>
<path d="M0 0 C1.65 0 3.3 0 5 0 C5.33 1.32 5.66 2.64 6 4 C3.03 3.505 3.03 3.505 0 3 C0 2.01 0 1.02 0 0 Z " fill="#2D0344" transform="translate(37,78)"/>
<path d="M0 0 C0.99 0 1.98 0 3 0 C2.67 1.32 2.34 2.64 2 4 C2.66 4 3.32 4 4 4 C4 4.66 4 5.32 4 6 C2.68 6 1.36 6 0 6 C0 4.02 0 2.04 0 0 Z " fill="#9D0BA9" transform="translate(2,61)"/>
<path d="M0 0 C0.99 0 1.98 0 3 0 C4.4606285 2.64738916 5 3.89448334 5 7 C4.34 7 3.68 7 3 7 C2.67 6.01 2.34 5.02 2 4 C1.34 3.67 0.68 3.34 0 3 C0 2.01 0 1.02 0 0 Z " fill="#0D0015" transform="translate(37,35)"/>
</svg>
