<?xml version="1.0" encoding="UTF-8"?>
<svg version="1.1" xmlns="http://www.w3.org/2000/svg" width="96" height="96">
<path d="M0 0 C31.68 0 63.36 0 96 0 C96 31.68 96 63.36 96 96 C64.32 96 32.64 96 0 96 C0 64.32 0 32.64 0 0 Z " fill="#2D0047" transform="translate(0,0)"/>
<path d="M0 0 C23.76 0 47.52 0 72 0 C72 11.88 72 23.76 72 36 C48.24 36 24.48 36 0 36 C0 24.12 0 12.24 0 0 Z " fill="#300054" transform="translate(12,36)"/>
<path d="M0 0 C31.68 0 63.36 0 96 0 C96 7.92 96 15.84 96 24 C92.04 24 88.08 24 84 24 C84 20.04 84 16.08 84 12 C76.08 12 68.16 12 60 12 C60 15.96 60 19.92 60 24 C52.08 24 44.16 24 36 24 C36 20.04 36 16.08 36 12 C28.08 12 20.16 12 12 12 C12 15.96 12 19.92 12 24 C8.04 24 4.08 24 0 24 C0 16.08 0 8.16 0 0 Z " fill="#0C0013" transform="translate(0,0)"/>
<path d="M0 0 C7.92 0 15.84 0 24 0 C24 3.96 24 7.92 24 12 C27.96 12 31.92 12 36 12 C36 31.8 36 51.6 36 72 C24.12 72 12.24 72 0 72 C0 68.04 0 64.08 0 60 C7.92 60 15.84 60 24 60 C24 48.12 24 36.24 24 24 C16.08 24 8.16 24 0 24 C0 16.08 0 8.16 0 0 Z " fill="#2D0047" transform="translate(60,12)"/>
<path d="M0 0 C7.92 0 15.84 0 24 0 C24 3.96 24 7.92 24 12 C35.88 12 47.76 12 60 12 C60 15.96 60 19.92 60 24 C28.32 24 -3.36 24 -36 24 C-36 20.04 -36 16.08 -36 12 C-24.12 12 -12.24 12 0 12 C0 8.04 0 4.08 0 0 Z " fill="#160024" transform="translate(36,72)"/>
<path d="M0 0 C3.96 0 7.92 0 12 0 C12 11.88 12 23.76 12 36 C0.12 36 -11.76 36 -24 36 C-24 32.04 -24 28.08 -24 24 C-16.08 24 -8.16 24 0 24 C0 16.08 0 8.16 0 0 Z " fill="#2D0047" transform="translate(84,48)"/>
<path d="M0 0 C3.96 0 7.92 0 12 0 C12 7.92 12 15.84 12 24 C19.92 24 27.84 24 36 24 C36 27.96 36 31.92 36 36 C24.12 36 12.24 36 0 36 C0 24.12 0 12.24 0 0 Z " fill="#2D0047" transform="translate(0,48)"/>
<path d="M0 0 C7.92 0 15.84 0 24 0 C24 7.92 24 15.84 24 24 C16.08 24 8.16 24 0 24 C0 16.08 0 8.16 0 0 Z " fill="#3D0061" transform="translate(60,48)"/>
<path d="M0 0 C7.92 0 15.84 0 24 0 C24 7.92 24 15.84 24 24 C16.08 24 8.16 24 0 24 C0 16.08 0 8.16 0 0 Z " fill="#3D0061" transform="translate(12,48)"/>
<path d="M0 0 C7.92 0 15.84 0 24 0 C24 3.96 24 7.92 24 12 C16.08 12 8.16 12 0 12 C0 8.04 0 4.08 0 0 Z " fill="#1A002D" transform="translate(36,72)"/>
<path d="M0 0 C3.96 0 7.92 0 12 0 C12 7.92 12 15.84 12 24 C8.04 24 4.08 24 0 24 C0 16.08 0 8.16 0 0 Z " fill="#310047" transform="translate(84,48)"/>
<path d="M0 0 C7.92 0 15.84 0 24 0 C24 3.96 24 7.92 24 12 C16.08 12 8.16 12 0 12 C0 8.04 0 4.08 0 0 Z " fill="#290047" transform="translate(36,60)"/>
<path d="M0 0 C3.96 0 7.92 0 12 0 C12 7.92 12 15.84 12 24 C8.04 24 4.08 24 0 24 C0 16.08 0 8.16 0 0 Z " fill="#310047" transform="translate(0,48)"/>
<path d="M0 0 C7.92 0 15.84 0 24 0 C24 3.96 24 7.92 24 12 C16.08 12 8.16 12 0 12 C0 8.04 0 4.08 0 0 Z " fill="#D99AFF" transform="translate(60,48)"/>
<path d="M0 0 C7.92 0 15.84 0 24 0 C24 3.96 24 7.92 24 12 C16.08 12 8.16 12 0 12 C0 8.04 0 4.08 0 0 Z " fill="#D99AFF" transform="translate(12,48)"/>
<path d="M0 0 C7.92 0 15.84 0 24 0 C24 3.96 24 7.92 24 12 C16.08 12 8.16 12 0 12 C0 8.04 0 4.08 0 0 Z " fill="#3D0061" transform="translate(60,36)"/>
<path d="M0 0 C7.92 0 15.84 0 24 0 C24 3.96 24 7.92 24 12 C16.08 12 8.16 12 0 12 C0 8.04 0 4.08 0 0 Z " fill="#3D0061" transform="translate(12,36)"/>
<path d="M0 0 C7.92 0 15.84 0 24 0 C24 3.96 24 7.92 24 12 C16.08 12 8.16 12 0 12 C0 8.04 0 4.08 0 0 Z " fill="#1A002D" transform="translate(36,24)"/>
<path d="M0 0 C7.92 0 15.84 0 24 0 C24 3.96 24 7.92 24 12 C16.08 12 8.16 12 0 12 C0 8.04 0 4.08 0 0 Z " fill="#1C002D" transform="translate(60,12)"/>
<path d="M0 0 C7.92 0 15.84 0 24 0 C24 3.96 24 7.92 24 12 C16.08 12 8.16 12 0 12 C0 8.04 0 4.08 0 0 Z " fill="#1C002D" transform="translate(12,12)"/>
<path d="M0 0 C7.92 0 15.84 0 24 0 C24 3.96 24 7.92 24 12 C16.08 12 8.16 12 0 12 C0 8.04 0 4.08 0 0 Z " fill="#000000" transform="translate(36,0)"/>
<path d="M0 0 C3.96 0 7.92 0 12 0 C12 3.96 12 7.92 12 12 C8.04 12 4.08 12 0 12 C0 8.04 0 4.08 0 0 Z " fill="#0D0013" transform="translate(84,84)"/>
<path d="M0 0 C3.96 0 7.92 0 12 0 C12 3.96 12 7.92 12 12 C8.04 12 4.08 12 0 12 C0 8.04 0 4.08 0 0 Z " fill="#0D0013" transform="translate(0,84)"/>
<path d="M0 0 C3.96 0 7.92 0 12 0 C12 3.96 12 7.92 12 12 C8.04 12 4.08 12 0 12 C0 8.04 0 4.08 0 0 Z " fill="#1F002D" transform="translate(84,72)"/>
<path d="M0 0 C3.96 0 7.92 0 12 0 C12 3.96 12 7.92 12 12 C8.04 12 4.08 12 0 12 C0 8.04 0 4.08 0 0 Z " fill="#1F002D" transform="translate(0,72)"/>
<path d="M0 0 C3.96 0 7.92 0 12 0 C12 3.96 12 7.92 12 12 C8.04 12 4.08 12 0 12 C0 8.04 0 4.08 0 0 Z " fill="#430061" transform="translate(84,48)"/>
<path d="M0 0 C3.96 0 7.92 0 12 0 C12 3.96 12 7.92 12 12 C8.04 12 4.08 12 0 12 C0 8.04 0 4.08 0 0 Z " fill="#430061" transform="translate(0,48)"/>
<path d="M0 0 C3.96 0 7.92 0 12 0 C12 3.96 12 7.92 12 12 C8.04 12 4.08 12 0 12 C0 8.04 0 4.08 0 0 Z " fill="#310047" transform="translate(84,36)"/>
<path d="M0 0 C3.96 0 7.92 0 12 0 C12 3.96 12 7.92 12 12 C8.04 12 4.08 12 0 12 C0 8.04 0 4.08 0 0 Z " fill="#310047" transform="translate(0,36)"/>
<path d="M0 0 C3.96 0 7.92 0 12 0 C12 3.96 12 7.92 12 12 C8.04 12 4.08 12 0 12 C0 8.04 0 4.08 0 0 Z " fill="#1F002D" transform="translate(84,24)"/>
<path d="M0 0 C3.96 0 7.92 0 12 0 C12 3.96 12 7.92 12 12 C8.04 12 4.08 12 0 12 C0 8.04 0 4.08 0 0 Z " fill="#1F002D" transform="translate(0,24)"/>
<path d="M0 0 C3.96 0 7.92 0 12 0 C12 3.96 12 7.92 12 12 C8.04 12 4.08 12 0 12 C0 8.04 0 4.08 0 0 Z " fill="#000000" transform="translate(84,0)"/>
<path d="M0 0 C3.96 0 7.92 0 12 0 C12 3.96 12 7.92 12 12 C8.04 12 4.08 12 0 12 C0 8.04 0 4.08 0 0 Z " fill="#000000" transform="translate(0,0)"/>
</svg>
